<mxfile host="app.diagrams.net" agent="Mozilla/5.0 (Windows NT 10.0; Win64; x64) AppleWebKit/537.36 (KHTML, like Gecko) Chrome/135.0.0.0 Safari/537.36" version="26.2.12">
  <diagram id="R2lEEEUBdFMjLlhIrx00" name="Page-1">
    <mxGraphModel dx="874" dy="449" grid="1" gridSize="10" guides="1" tooltips="1" connect="1" arrows="1" fold="1" page="1" pageScale="1" pageWidth="850" pageHeight="1100" background="none" math="0" shadow="0" extFonts="Permanent Marker^https://fonts.googleapis.com/css?family=Permanent+Marker">
      <root>
        <mxCell id="0" />
        <mxCell id="1" parent="0" />
        <mxCell id="7s_l10Fg5CiA5fgPQIKB-1" value="Doctor" style="rounded=0;whiteSpace=wrap;html=1;" parent="1" vertex="1">
          <mxGeometry x="202.5" y="200" width="100" height="40" as="geometry" />
        </mxCell>
        <mxCell id="7s_l10Fg5CiA5fgPQIKB-2" value="Patient" style="rounded=0;whiteSpace=wrap;html=1;" parent="1" vertex="1">
          <mxGeometry x="600" y="740" width="100" height="40" as="geometry" />
        </mxCell>
        <mxCell id="7s_l10Fg5CiA5fgPQIKB-3" value="&lt;u&gt;patient_id&lt;/u&gt;" style="ellipse;whiteSpace=wrap;html=1;" parent="1" vertex="1">
          <mxGeometry x="569" y="660" width="90" height="40" as="geometry" />
        </mxCell>
        <mxCell id="7s_l10Fg5CiA5fgPQIKB-5" value="name" style="ellipse;whiteSpace=wrap;html=1;" parent="1" vertex="1">
          <mxGeometry x="112.5" y="60" width="90" height="40" as="geometry" />
        </mxCell>
        <mxCell id="7s_l10Fg5CiA5fgPQIKB-7" value="visit" style="ellipse;whiteSpace=wrap;html=1;" parent="1" vertex="1">
          <mxGeometry x="10" y="280" width="90" height="40" as="geometry" />
        </mxCell>
        <mxCell id="7s_l10Fg5CiA5fgPQIKB-8" value="specialty" style="ellipse;whiteSpace=wrap;html=1;" parent="1" vertex="1">
          <mxGeometry x="20" y="230" width="90" height="40" as="geometry" />
        </mxCell>
        <mxCell id="7s_l10Fg5CiA5fgPQIKB-9" value="qualification" style="ellipse;whiteSpace=wrap;html=1;" parent="1" vertex="1">
          <mxGeometry x="10" y="180" width="90" height="40" as="geometry" />
        </mxCell>
        <mxCell id="7s_l10Fg5CiA5fgPQIKB-10" value="room_no" style="ellipse;whiteSpace=wrap;html=1;" parent="1" vertex="1">
          <mxGeometry x="20" y="130" width="90" height="40" as="geometry" />
        </mxCell>
        <mxCell id="7s_l10Fg5CiA5fgPQIKB-11" value="address" style="ellipse;whiteSpace=wrap;html=1;" parent="1" vertex="1">
          <mxGeometry x="27.5" y="80" width="90" height="40" as="geometry" />
        </mxCell>
        <mxCell id="7s_l10Fg5CiA5fgPQIKB-13" value="name" style="ellipse;whiteSpace=wrap;html=1;" parent="1" vertex="1">
          <mxGeometry x="664" y="660" width="90" height="40" as="geometry" />
        </mxCell>
        <mxCell id="7s_l10Fg5CiA5fgPQIKB-14" value="mobile_no" style="ellipse;shape=doubleEllipse;margin=3;whiteSpace=wrap;html=1;align=center;" parent="1" vertex="1">
          <mxGeometry x="720" y="700" width="100" height="40" as="geometry" />
        </mxCell>
        <mxCell id="7s_l10Fg5CiA5fgPQIKB-15" value="&lt;u&gt;doctor_id&lt;/u&gt;" style="ellipse;whiteSpace=wrap;html=1;" parent="1" vertex="1">
          <mxGeometry x="212.5" y="60" width="90" height="40" as="geometry" />
        </mxCell>
        <mxCell id="7s_l10Fg5CiA5fgPQIKB-16" value="contact_no" style="ellipse;shape=doubleEllipse;margin=3;whiteSpace=wrap;html=1;align=center;" parent="1" vertex="1">
          <mxGeometry y="330" width="100" height="40" as="geometry" />
        </mxCell>
        <mxCell id="7s_l10Fg5CiA5fgPQIKB-17" value="age" style="ellipse;whiteSpace=wrap;html=1;dashed=1;" parent="1" vertex="1">
          <mxGeometry x="730" y="780" width="90" height="40" as="geometry" />
        </mxCell>
        <mxCell id="7s_l10Fg5CiA5fgPQIKB-18" value="address" style="ellipse;whiteSpace=wrap;html=1;" parent="1" vertex="1">
          <mxGeometry x="636" y="810" width="90" height="40" as="geometry" />
        </mxCell>
        <mxCell id="7s_l10Fg5CiA5fgPQIKB-20" value="Chamber" style="rounded=0;whiteSpace=wrap;html=1;" parent="1" vertex="1">
          <mxGeometry x="573" y="120" width="100" height="40" as="geometry" />
        </mxCell>
        <mxCell id="7s_l10Fg5CiA5fgPQIKB-21" value="city_name" style="ellipse;whiteSpace=wrap;html=1;" parent="1" vertex="1">
          <mxGeometry x="556" y="880" width="90" height="40" as="geometry" />
        </mxCell>
        <mxCell id="7s_l10Fg5CiA5fgPQIKB-22" value="street_number" style="ellipse;whiteSpace=wrap;html=1;" parent="1" vertex="1">
          <mxGeometry x="649" y="880" width="90" height="40" as="geometry" />
        </mxCell>
        <mxCell id="7s_l10Fg5CiA5fgPQIKB-23" value="house_number" style="ellipse;whiteSpace=wrap;html=1;" parent="1" vertex="1">
          <mxGeometry x="739" y="880" width="90" height="40" as="geometry" />
        </mxCell>
        <mxCell id="7s_l10Fg5CiA5fgPQIKB-24" value="" style="endArrow=none;html=1;rounded=0;exitX=0.5;exitY=0;exitDx=0;exitDy=0;entryX=0;entryY=1;entryDx=0;entryDy=0;" parent="1" source="7s_l10Fg5CiA5fgPQIKB-21" target="7s_l10Fg5CiA5fgPQIKB-18" edge="1">
          <mxGeometry relative="1" as="geometry">
            <mxPoint x="549" y="800" as="sourcePoint" />
            <mxPoint x="709" y="800" as="targetPoint" />
          </mxGeometry>
        </mxCell>
        <mxCell id="7s_l10Fg5CiA5fgPQIKB-26" value="" style="endArrow=none;html=1;rounded=0;exitX=0.5;exitY=0;exitDx=0;exitDy=0;entryX=0.5;entryY=1;entryDx=0;entryDy=0;" parent="1" source="7s_l10Fg5CiA5fgPQIKB-22" target="7s_l10Fg5CiA5fgPQIKB-18" edge="1">
          <mxGeometry relative="1" as="geometry">
            <mxPoint x="549" y="800" as="sourcePoint" />
            <mxPoint x="709" y="800" as="targetPoint" />
          </mxGeometry>
        </mxCell>
        <mxCell id="7s_l10Fg5CiA5fgPQIKB-27" value="" style="endArrow=none;html=1;rounded=0;exitX=0.5;exitY=0;exitDx=0;exitDy=0;entryX=1;entryY=1;entryDx=0;entryDy=0;" parent="1" source="7s_l10Fg5CiA5fgPQIKB-23" target="7s_l10Fg5CiA5fgPQIKB-18" edge="1">
          <mxGeometry relative="1" as="geometry">
            <mxPoint x="549" y="800" as="sourcePoint" />
            <mxPoint x="709" y="800" as="targetPoint" />
          </mxGeometry>
        </mxCell>
        <mxCell id="7s_l10Fg5CiA5fgPQIKB-28" value="chamber_id" style="ellipse;whiteSpace=wrap;html=1;align=center;fontStyle=4;" parent="1" vertex="1">
          <mxGeometry x="605" y="50" width="100" height="40" as="geometry" />
        </mxCell>
        <mxCell id="7s_l10Fg5CiA5fgPQIKB-31" value="address" style="ellipse;whiteSpace=wrap;html=1;" parent="1" vertex="1">
          <mxGeometry x="720" y="130" width="90" height="40" as="geometry" />
        </mxCell>
        <mxCell id="7s_l10Fg5CiA5fgPQIKB-32" value="city_name" style="ellipse;whiteSpace=wrap;html=1;" parent="1" vertex="1">
          <mxGeometry x="670" y="180" width="90" height="40" as="geometry" />
        </mxCell>
        <mxCell id="7s_l10Fg5CiA5fgPQIKB-33" value="street_number" style="ellipse;whiteSpace=wrap;html=1;" parent="1" vertex="1">
          <mxGeometry x="760" y="190" width="90" height="40" as="geometry" />
        </mxCell>
        <mxCell id="7s_l10Fg5CiA5fgPQIKB-34" value="house_number" style="ellipse;whiteSpace=wrap;html=1;" parent="1" vertex="1">
          <mxGeometry x="739" y="60" width="90" height="40" as="geometry" />
        </mxCell>
        <mxCell id="7s_l10Fg5CiA5fgPQIKB-35" value="" style="endArrow=none;html=1;rounded=0;exitX=0.5;exitY=0;exitDx=0;exitDy=0;entryX=0;entryY=1;entryDx=0;entryDy=0;" parent="1" source="7s_l10Fg5CiA5fgPQIKB-32" target="7s_l10Fg5CiA5fgPQIKB-31" edge="1">
          <mxGeometry relative="1" as="geometry">
            <mxPoint x="266" y="120" as="sourcePoint" />
            <mxPoint x="426" y="120" as="targetPoint" />
          </mxGeometry>
        </mxCell>
        <mxCell id="7s_l10Fg5CiA5fgPQIKB-36" value="" style="endArrow=none;html=1;rounded=0;exitX=0.5;exitY=0;exitDx=0;exitDy=0;entryX=1;entryY=1;entryDx=0;entryDy=0;" parent="1" source="7s_l10Fg5CiA5fgPQIKB-33" target="7s_l10Fg5CiA5fgPQIKB-31" edge="1">
          <mxGeometry relative="1" as="geometry">
            <mxPoint x="524.5" y="190" as="sourcePoint" />
            <mxPoint x="684.5" y="190" as="targetPoint" />
          </mxGeometry>
        </mxCell>
        <mxCell id="7s_l10Fg5CiA5fgPQIKB-37" value="" style="endArrow=none;html=1;rounded=0;exitX=0.5;exitY=1;exitDx=0;exitDy=0;entryX=0.5;entryY=0;entryDx=0;entryDy=0;" parent="1" source="7s_l10Fg5CiA5fgPQIKB-34" target="7s_l10Fg5CiA5fgPQIKB-31" edge="1">
          <mxGeometry relative="1" as="geometry">
            <mxPoint x="524.5" y="190" as="sourcePoint" />
            <mxPoint x="684.5" y="190" as="targetPoint" />
          </mxGeometry>
        </mxCell>
        <mxCell id="7s_l10Fg5CiA5fgPQIKB-38" value="Compounder" style="whiteSpace=wrap;html=1;align=center;" parent="1" vertex="1">
          <mxGeometry x="442.5" y="410" width="100" height="40" as="geometry" />
        </mxCell>
        <mxCell id="7s_l10Fg5CiA5fgPQIKB-39" value="contact_no" style="ellipse;shape=doubleEllipse;margin=3;whiteSpace=wrap;html=1;align=center;" parent="1" vertex="1">
          <mxGeometry x="506" y="490" width="100" height="40" as="geometry" />
        </mxCell>
        <mxCell id="7s_l10Fg5CiA5fgPQIKB-40" value="name" style="ellipse;whiteSpace=wrap;html=1;" parent="1" vertex="1">
          <mxGeometry x="610" y="470" width="90" height="40" as="geometry" />
        </mxCell>
        <mxCell id="7s_l10Fg5CiA5fgPQIKB-41" value="compounder_id" style="ellipse;whiteSpace=wrap;html=1;align=center;fontStyle=4;" parent="1" vertex="1">
          <mxGeometry x="452.5" y="540" width="100" height="40" as="geometry" />
        </mxCell>
        <mxCell id="7s_l10Fg5CiA5fgPQIKB-42" value="Appointment" style="whiteSpace=wrap;html=1;align=center;" parent="1" vertex="1">
          <mxGeometry x="85" y="740" width="100" height="40" as="geometry" />
        </mxCell>
        <mxCell id="7s_l10Fg5CiA5fgPQIKB-43" value="appointment_id" style="ellipse;whiteSpace=wrap;html=1;align=center;fontStyle=4;" parent="1" vertex="1">
          <mxGeometry x="20" y="840" width="100" height="40" as="geometry" />
        </mxCell>
        <mxCell id="7s_l10Fg5CiA5fgPQIKB-44" value="date" style="ellipse;whiteSpace=wrap;html=1;" parent="1" vertex="1">
          <mxGeometry x="90" y="880" width="90" height="40" as="geometry" />
        </mxCell>
        <mxCell id="7s_l10Fg5CiA5fgPQIKB-45" value="time" style="ellipse;whiteSpace=wrap;html=1;" parent="1" vertex="1">
          <mxGeometry x="150" y="830" width="90" height="40" as="geometry" />
        </mxCell>
        <mxCell id="7s_l10Fg5CiA5fgPQIKB-46" value="" style="endArrow=none;html=1;rounded=0;exitX=0.5;exitY=0;exitDx=0;exitDy=0;entryX=0.5;entryY=1;entryDx=0;entryDy=0;" parent="1" source="7s_l10Fg5CiA5fgPQIKB-44" target="7s_l10Fg5CiA5fgPQIKB-42" edge="1">
          <mxGeometry relative="1" as="geometry">
            <mxPoint x="177.5" y="840" as="sourcePoint" />
            <mxPoint x="337.5" y="840" as="targetPoint" />
          </mxGeometry>
        </mxCell>
        <mxCell id="7s_l10Fg5CiA5fgPQIKB-47" value="" style="endArrow=none;html=1;rounded=0;exitX=0.5;exitY=0;exitDx=0;exitDy=0;entryX=0.25;entryY=1;entryDx=0;entryDy=0;" parent="1" source="7s_l10Fg5CiA5fgPQIKB-43" target="7s_l10Fg5CiA5fgPQIKB-42" edge="1">
          <mxGeometry relative="1" as="geometry">
            <mxPoint x="347.5" y="1130" as="sourcePoint" />
            <mxPoint x="507.5" y="1130" as="targetPoint" />
          </mxGeometry>
        </mxCell>
        <mxCell id="7s_l10Fg5CiA5fgPQIKB-48" value="" style="endArrow=none;html=1;rounded=0;exitX=0.75;exitY=1;exitDx=0;exitDy=0;entryX=0.5;entryY=0;entryDx=0;entryDy=0;" parent="1" source="7s_l10Fg5CiA5fgPQIKB-42" target="7s_l10Fg5CiA5fgPQIKB-45" edge="1">
          <mxGeometry relative="1" as="geometry">
            <mxPoint x="347.5" y="1130" as="sourcePoint" />
            <mxPoint x="507.5" y="1130" as="targetPoint" />
          </mxGeometry>
        </mxCell>
        <mxCell id="7s_l10Fg5CiA5fgPQIKB-49" value="Schedule" style="whiteSpace=wrap;html=1;align=center;" parent="1" vertex="1">
          <mxGeometry x="280" y="560" width="100" height="40" as="geometry" />
        </mxCell>
        <mxCell id="7s_l10Fg5CiA5fgPQIKB-50" value="date" style="ellipse;whiteSpace=wrap;html=1;" parent="1" vertex="1">
          <mxGeometry x="252.5" y="660" width="90" height="40" as="geometry" />
        </mxCell>
        <mxCell id="7s_l10Fg5CiA5fgPQIKB-51" value="time" style="ellipse;whiteSpace=wrap;html=1;" parent="1" vertex="1">
          <mxGeometry x="342.5" y="640" width="90" height="40" as="geometry" />
        </mxCell>
        <mxCell id="7s_l10Fg5CiA5fgPQIKB-52" value="" style="endArrow=none;html=1;rounded=0;exitX=0.5;exitY=0;exitDx=0;exitDy=0;entryX=0.33;entryY=1;entryDx=0;entryDy=0;entryPerimeter=0;" parent="1" source="7s_l10Fg5CiA5fgPQIKB-50" target="7s_l10Fg5CiA5fgPQIKB-49" edge="1">
          <mxGeometry relative="1" as="geometry">
            <mxPoint x="302.5" y="550" as="sourcePoint" />
            <mxPoint x="462.5" y="550" as="targetPoint" />
          </mxGeometry>
        </mxCell>
        <mxCell id="7s_l10Fg5CiA5fgPQIKB-53" value="" style="endArrow=none;html=1;rounded=0;exitX=0.5;exitY=0;exitDx=0;exitDy=0;entryX=0;entryY=1;entryDx=0;entryDy=0;" parent="1" source="7s_l10Fg5CiA5fgPQIKB-55" target="7s_l10Fg5CiA5fgPQIKB-49" edge="1">
          <mxGeometry relative="1" as="geometry">
            <mxPoint x="302.5" y="550" as="sourcePoint" />
            <mxPoint x="462.5" y="550" as="targetPoint" />
          </mxGeometry>
        </mxCell>
        <mxCell id="7s_l10Fg5CiA5fgPQIKB-54" value="" style="endArrow=none;html=1;rounded=0;exitX=0.5;exitY=1;exitDx=0;exitDy=0;entryX=0.5;entryY=0;entryDx=0;entryDy=0;" parent="1" source="7s_l10Fg5CiA5fgPQIKB-49" target="7s_l10Fg5CiA5fgPQIKB-51" edge="1">
          <mxGeometry relative="1" as="geometry">
            <mxPoint x="302.5" y="550" as="sourcePoint" />
            <mxPoint x="462.5" y="550" as="targetPoint" />
          </mxGeometry>
        </mxCell>
        <mxCell id="7s_l10Fg5CiA5fgPQIKB-55" value="schedule_id" style="ellipse;whiteSpace=wrap;html=1;align=center;fontStyle=4;" parent="1" vertex="1">
          <mxGeometry x="195" y="620" width="100" height="40" as="geometry" />
        </mxCell>
        <mxCell id="7s_l10Fg5CiA5fgPQIKB-67" value="" style="edgeStyle=orthogonalEdgeStyle;rounded=0;orthogonalLoop=1;jettySize=auto;html=1;exitX=0.5;exitY=0;exitDx=0;exitDy=0;entryX=0.25;entryY=1;entryDx=0;entryDy=0;" parent="1" source="7s_l10Fg5CiA5fgPQIKB-56" target="7s_l10Fg5CiA5fgPQIKB-1" edge="1">
          <mxGeometry relative="1" as="geometry">
            <mxPoint x="270" y="561" as="targetPoint" />
            <Array as="points">
              <mxPoint x="135" y="450" />
              <mxPoint x="227" y="450" />
            </Array>
          </mxGeometry>
        </mxCell>
        <mxCell id="7s_l10Fg5CiA5fgPQIKB-56" value="has_appointment" style="shape=rhombus;perimeter=rhombusPerimeter;whiteSpace=wrap;html=1;align=center;" parent="1" vertex="1">
          <mxGeometry x="75" y="540" width="120" height="60" as="geometry" />
        </mxCell>
        <mxCell id="7s_l10Fg5CiA5fgPQIKB-68" value="" style="endArrow=none;html=1;rounded=0;exitX=0.5;exitY=1;exitDx=0;exitDy=0;entryX=0.5;entryY=0;entryDx=0;entryDy=0;" parent="1" source="7s_l10Fg5CiA5fgPQIKB-56" target="7s_l10Fg5CiA5fgPQIKB-42" edge="1">
          <mxGeometry relative="1" as="geometry">
            <mxPoint x="342.5" y="420" as="sourcePoint" />
            <mxPoint x="382.5" y="490" as="targetPoint" />
            <Array as="points" />
          </mxGeometry>
        </mxCell>
        <mxCell id="7s_l10Fg5CiA5fgPQIKB-70" value="take_appointment" style="shape=rhombus;perimeter=rhombusPerimeter;whiteSpace=wrap;html=1;align=center;" parent="1" vertex="1">
          <mxGeometry x="342.5" y="730" width="147.5" height="60" as="geometry" />
        </mxCell>
        <mxCell id="7s_l10Fg5CiA5fgPQIKB-91" value="" style="endArrow=none;html=1;rounded=0;exitX=1;exitY=0.5;exitDx=0;exitDy=0;entryX=0;entryY=0.25;entryDx=0;entryDy=0;" parent="1" source="7s_l10Fg5CiA5fgPQIKB-9" target="7s_l10Fg5CiA5fgPQIKB-1" edge="1">
          <mxGeometry relative="1" as="geometry">
            <mxPoint x="107.5" y="200" as="sourcePoint" />
            <mxPoint x="142.5" y="290" as="targetPoint" />
          </mxGeometry>
        </mxCell>
        <mxCell id="7s_l10Fg5CiA5fgPQIKB-92" value="" style="endArrow=none;html=1;rounded=0;exitX=1;exitY=1;exitDx=0;exitDy=0;entryX=0;entryY=0;entryDx=0;entryDy=0;" parent="1" source="7s_l10Fg5CiA5fgPQIKB-10" target="7s_l10Fg5CiA5fgPQIKB-1" edge="1">
          <mxGeometry relative="1" as="geometry">
            <mxPoint x="110" y="150" as="sourcePoint" />
            <mxPoint x="220" y="190" as="targetPoint" />
          </mxGeometry>
        </mxCell>
        <mxCell id="7s_l10Fg5CiA5fgPQIKB-93" value="" style="endArrow=none;html=1;rounded=0;exitX=1;exitY=1;exitDx=0;exitDy=0;entryX=0.25;entryY=0;entryDx=0;entryDy=0;" parent="1" source="7s_l10Fg5CiA5fgPQIKB-11" target="7s_l10Fg5CiA5fgPQIKB-1" edge="1">
          <mxGeometry relative="1" as="geometry">
            <mxPoint x="110" y="114" as="sourcePoint" />
            <mxPoint x="202" y="200" as="targetPoint" />
          </mxGeometry>
        </mxCell>
        <mxCell id="7s_l10Fg5CiA5fgPQIKB-94" value="" style="endArrow=none;html=1;rounded=0;exitX=0.5;exitY=1;exitDx=0;exitDy=0;entryX=0.5;entryY=0;entryDx=0;entryDy=0;" parent="1" source="7s_l10Fg5CiA5fgPQIKB-5" target="7s_l10Fg5CiA5fgPQIKB-1" edge="1">
          <mxGeometry relative="1" as="geometry">
            <mxPoint x="152.5" y="102" as="sourcePoint" />
            <mxPoint x="258.5" y="198" as="targetPoint" />
          </mxGeometry>
        </mxCell>
        <mxCell id="7s_l10Fg5CiA5fgPQIKB-95" value="" style="endArrow=none;html=1;rounded=0;exitX=0.5;exitY=1;exitDx=0;exitDy=0;entryX=0.5;entryY=0;entryDx=0;entryDy=0;" parent="1" source="7s_l10Fg5CiA5fgPQIKB-15" target="7s_l10Fg5CiA5fgPQIKB-1" edge="1">
          <mxGeometry relative="1" as="geometry">
            <mxPoint x="256.5" y="100" as="sourcePoint" />
            <mxPoint x="333.5" y="210" as="targetPoint" />
          </mxGeometry>
        </mxCell>
        <mxCell id="7s_l10Fg5CiA5fgPQIKB-96" value="" style="endArrow=none;html=1;rounded=0;exitX=1;exitY=0.5;exitDx=0;exitDy=0;entryX=0;entryY=0.5;entryDx=0;entryDy=0;" parent="1" source="7s_l10Fg5CiA5fgPQIKB-8" target="7s_l10Fg5CiA5fgPQIKB-1" edge="1">
          <mxGeometry relative="1" as="geometry">
            <mxPoint x="188" y="240" as="sourcePoint" />
            <mxPoint x="200" y="360" as="targetPoint" />
          </mxGeometry>
        </mxCell>
        <mxCell id="7s_l10Fg5CiA5fgPQIKB-97" value="" style="endArrow=none;html=1;rounded=0;exitX=1;exitY=0.5;exitDx=0;exitDy=0;entryX=0;entryY=0.75;entryDx=0;entryDy=0;" parent="1" source="7s_l10Fg5CiA5fgPQIKB-7" target="7s_l10Fg5CiA5fgPQIKB-1" edge="1">
          <mxGeometry relative="1" as="geometry">
            <mxPoint x="120" y="260" as="sourcePoint" />
            <mxPoint x="220" y="260" as="targetPoint" />
          </mxGeometry>
        </mxCell>
        <mxCell id="7s_l10Fg5CiA5fgPQIKB-98" value="" style="endArrow=none;html=1;rounded=0;exitX=1;exitY=0;exitDx=0;exitDy=0;entryX=0;entryY=1;entryDx=0;entryDy=0;" parent="1" source="7s_l10Fg5CiA5fgPQIKB-16" target="7s_l10Fg5CiA5fgPQIKB-1" edge="1">
          <mxGeometry relative="1" as="geometry">
            <mxPoint x="180" y="300" as="sourcePoint" />
            <mxPoint x="245" y="260" as="targetPoint" />
          </mxGeometry>
        </mxCell>
        <mxCell id="7s_l10Fg5CiA5fgPQIKB-99" value="" style="endArrow=none;html=1;rounded=0;exitX=0;exitY=0;exitDx=0;exitDy=0;entryX=1;entryY=0.5;entryDx=0;entryDy=0;" parent="1" source="7s_l10Fg5CiA5fgPQIKB-31" target="7s_l10Fg5CiA5fgPQIKB-20" edge="1">
          <mxGeometry relative="1" as="geometry">
            <mxPoint x="328" y="210" as="sourcePoint" />
            <mxPoint x="386" y="164" as="targetPoint" />
          </mxGeometry>
        </mxCell>
        <mxCell id="7s_l10Fg5CiA5fgPQIKB-100" value="" style="endArrow=none;html=1;rounded=0;entryX=0.5;entryY=0;entryDx=0;entryDy=0;" parent="1" target="7s_l10Fg5CiA5fgPQIKB-20" edge="1">
          <mxGeometry relative="1" as="geometry">
            <mxPoint x="640" y="90" as="sourcePoint" />
            <mxPoint x="450" y="164" as="targetPoint" />
          </mxGeometry>
        </mxCell>
        <mxCell id="7s_l10Fg5CiA5fgPQIKB-101" value="" style="endArrow=none;html=1;rounded=0;exitX=0.5;exitY=1;exitDx=0;exitDy=0;entryX=0.5;entryY=0;entryDx=0;entryDy=0;" parent="1" source="7s_l10Fg5CiA5fgPQIKB-3" target="7s_l10Fg5CiA5fgPQIKB-2" edge="1">
          <mxGeometry relative="1" as="geometry">
            <mxPoint x="256" y="1050" as="sourcePoint" />
            <mxPoint x="291" y="1140" as="targetPoint" />
          </mxGeometry>
        </mxCell>
        <mxCell id="7s_l10Fg5CiA5fgPQIKB-102" value="" style="endArrow=none;html=1;rounded=0;exitX=0;exitY=1;exitDx=0;exitDy=0;entryX=0.75;entryY=0;entryDx=0;entryDy=0;" parent="1" source="7s_l10Fg5CiA5fgPQIKB-13" target="7s_l10Fg5CiA5fgPQIKB-2" edge="1">
          <mxGeometry relative="1" as="geometry">
            <mxPoint x="629" y="690" as="sourcePoint" />
            <mxPoint x="639" y="740" as="targetPoint" />
          </mxGeometry>
        </mxCell>
        <mxCell id="7s_l10Fg5CiA5fgPQIKB-103" value="" style="endArrow=none;html=1;rounded=0;exitX=0;exitY=1;exitDx=0;exitDy=0;entryX=1;entryY=0.25;entryDx=0;entryDy=0;" parent="1" source="7s_l10Fg5CiA5fgPQIKB-14" target="7s_l10Fg5CiA5fgPQIKB-2" edge="1">
          <mxGeometry relative="1" as="geometry">
            <mxPoint x="691" y="694" as="sourcePoint" />
            <mxPoint x="664" y="740" as="targetPoint" />
          </mxGeometry>
        </mxCell>
        <mxCell id="7s_l10Fg5CiA5fgPQIKB-104" value="" style="endArrow=none;html=1;rounded=0;exitX=0;exitY=0.5;exitDx=0;exitDy=0;entryX=1;entryY=0.75;entryDx=0;entryDy=0;" parent="1" source="7s_l10Fg5CiA5fgPQIKB-17" target="7s_l10Fg5CiA5fgPQIKB-2" edge="1">
          <mxGeometry relative="1" as="geometry">
            <mxPoint x="691" y="694" as="sourcePoint" />
            <mxPoint x="664" y="740" as="targetPoint" />
          </mxGeometry>
        </mxCell>
        <mxCell id="7s_l10Fg5CiA5fgPQIKB-105" value="" style="endArrow=none;html=1;rounded=0;exitX=0.5;exitY=0;exitDx=0;exitDy=0;entryX=0.75;entryY=1;entryDx=0;entryDy=0;" parent="1" source="7s_l10Fg5CiA5fgPQIKB-18" target="7s_l10Fg5CiA5fgPQIKB-2" edge="1">
          <mxGeometry relative="1" as="geometry">
            <mxPoint x="709" y="780" as="sourcePoint" />
            <mxPoint x="689" y="770" as="targetPoint" />
          </mxGeometry>
        </mxCell>
        <mxCell id="7s_l10Fg5CiA5fgPQIKB-106" value="associated " style="shape=rhombus;perimeter=rhombusPerimeter;whiteSpace=wrap;html=1;align=center;" parent="1" vertex="1">
          <mxGeometry x="402.5" y="110" width="120" height="60" as="geometry" />
        </mxCell>
        <mxCell id="7s_l10Fg5CiA5fgPQIKB-108" value="" style="edgeStyle=orthogonalEdgeStyle;rounded=0;orthogonalLoop=1;jettySize=auto;html=1;entryX=1;entryY=0.5;entryDx=0;entryDy=0;exitX=0;exitY=0.5;exitDx=0;exitDy=0;" parent="1" source="7s_l10Fg5CiA5fgPQIKB-106" target="7s_l10Fg5CiA5fgPQIKB-1" edge="1">
          <mxGeometry relative="1" as="geometry">
            <mxPoint x="425" y="250" as="sourcePoint" />
            <mxPoint x="355" y="250" as="targetPoint" />
            <Array as="points">
              <mxPoint x="360" y="140" />
              <mxPoint x="360" y="220" />
            </Array>
          </mxGeometry>
        </mxCell>
        <mxCell id="7s_l10Fg5CiA5fgPQIKB-109" value="" style="endArrow=none;html=1;rounded=0;strokeColor=default;align=center;verticalAlign=middle;fontFamily=Helvetica;fontSize=12;fontColor=default;labelBackgroundColor=default;edgeStyle=entityRelationEdgeStyle;entryX=0;entryY=0.5;entryDx=0;entryDy=0;exitX=1;exitY=0.5;exitDx=0;exitDy=0;" parent="1" source="7s_l10Fg5CiA5fgPQIKB-106" target="7s_l10Fg5CiA5fgPQIKB-20" edge="1">
          <mxGeometry relative="1" as="geometry">
            <mxPoint x="498" y="140" as="sourcePoint" />
            <mxPoint x="588" y="140" as="targetPoint" />
          </mxGeometry>
        </mxCell>
        <mxCell id="7s_l10Fg5CiA5fgPQIKB-110" value="have" style="shape=rhombus;perimeter=rhombusPerimeter;whiteSpace=wrap;html=1;align=center;" parent="1" vertex="1">
          <mxGeometry x="432.5" y="300" width="120" height="60" as="geometry" />
        </mxCell>
        <mxCell id="7s_l10Fg5CiA5fgPQIKB-111" value="" style="endArrow=none;html=1;rounded=0;exitX=0.5;exitY=1;exitDx=0;exitDy=0;entryX=0.5;entryY=0;entryDx=0;entryDy=0;" parent="1" source="7s_l10Fg5CiA5fgPQIKB-110" target="7s_l10Fg5CiA5fgPQIKB-38" edge="1">
          <mxGeometry relative="1" as="geometry">
            <mxPoint x="295" y="260" as="sourcePoint" />
            <mxPoint x="332" y="340" as="targetPoint" />
            <Array as="points" />
          </mxGeometry>
        </mxCell>
        <mxCell id="7s_l10Fg5CiA5fgPQIKB-113" value="" style="edgeStyle=orthogonalEdgeStyle;rounded=0;orthogonalLoop=1;jettySize=auto;html=1;exitX=0.5;exitY=0;exitDx=0;exitDy=0;entryX=0.75;entryY=1;entryDx=0;entryDy=0;" parent="1" source="7s_l10Fg5CiA5fgPQIKB-110" target="7s_l10Fg5CiA5fgPQIKB-1" edge="1">
          <mxGeometry relative="1" as="geometry">
            <mxPoint x="210" y="475" as="sourcePoint" />
            <mxPoint x="210" y="565" as="targetPoint" />
            <Array as="points">
              <mxPoint x="492" y="270" />
              <mxPoint x="277" y="270" />
            </Array>
          </mxGeometry>
        </mxCell>
        <mxCell id="7s_l10Fg5CiA5fgPQIKB-115" value="" style="endArrow=none;html=1;rounded=0;strokeColor=default;align=center;verticalAlign=middle;fontFamily=Helvetica;fontSize=12;fontColor=default;labelBackgroundColor=default;edgeStyle=entityRelationEdgeStyle;exitX=1;exitY=0.5;exitDx=0;exitDy=0;entryX=0;entryY=0.5;entryDx=0;entryDy=0;" parent="1" source="7s_l10Fg5CiA5fgPQIKB-42" target="7s_l10Fg5CiA5fgPQIKB-70" edge="1">
          <mxGeometry relative="1" as="geometry">
            <mxPoint x="347.5" y="530" as="sourcePoint" />
            <mxPoint x="447.5000000000002" y="730" as="targetPoint" />
          </mxGeometry>
        </mxCell>
        <mxCell id="7s_l10Fg5CiA5fgPQIKB-118" value="" style="edgeStyle=orthogonalEdgeStyle;rounded=0;orthogonalLoop=1;jettySize=auto;html=1;entryX=0;entryY=0.5;entryDx=0;entryDy=0;exitX=1;exitY=0.5;exitDx=0;exitDy=0;" parent="1" source="7s_l10Fg5CiA5fgPQIKB-70" target="7s_l10Fg5CiA5fgPQIKB-2" edge="1">
          <mxGeometry relative="1" as="geometry">
            <mxPoint x="520" y="240" as="sourcePoint" />
            <mxPoint x="610" y="140" as="targetPoint" />
            <Array as="points">
              <mxPoint x="596" y="760" />
            </Array>
          </mxGeometry>
        </mxCell>
        <mxCell id="7s_l10Fg5CiA5fgPQIKB-119" value="maintain" style="shape=rhombus;perimeter=rhombusPerimeter;whiteSpace=wrap;html=1;align=center;" parent="1" vertex="1">
          <mxGeometry x="563" y="260" width="120" height="60" as="geometry" />
        </mxCell>
        <mxCell id="7s_l10Fg5CiA5fgPQIKB-122" value="" style="edgeStyle=orthogonalEdgeStyle;rounded=0;orthogonalLoop=1;jettySize=auto;html=1;entryX=1;entryY=0.5;entryDx=0;entryDy=0;exitX=0.5;exitY=1;exitDx=0;exitDy=0;" parent="1" source="7s_l10Fg5CiA5fgPQIKB-119" target="7s_l10Fg5CiA5fgPQIKB-38" edge="1">
          <mxGeometry relative="1" as="geometry">
            <mxPoint x="415" y="140" as="sourcePoint" />
            <mxPoint x="312" y="230" as="targetPoint" />
            <Array as="points">
              <mxPoint x="623" y="430" />
            </Array>
          </mxGeometry>
        </mxCell>
        <mxCell id="7s_l10Fg5CiA5fgPQIKB-123" value="" style="edgeStyle=orthogonalEdgeStyle;rounded=0;orthogonalLoop=1;jettySize=auto;html=1;exitX=0.5;exitY=0;exitDx=0;exitDy=0;entryX=0.5;entryY=1;entryDx=0;entryDy=0;" parent="1" source="7s_l10Fg5CiA5fgPQIKB-119" target="7s_l10Fg5CiA5fgPQIKB-20" edge="1">
          <mxGeometry relative="1" as="geometry">
            <mxPoint x="590" y="200" as="sourcePoint" />
            <mxPoint x="590" y="100" as="targetPoint" />
            <Array as="points">
              <mxPoint x="623" y="210" />
              <mxPoint x="623" y="210" />
            </Array>
          </mxGeometry>
        </mxCell>
        <mxCell id="7s_l10Fg5CiA5fgPQIKB-126" value="" style="endArrow=none;html=1;rounded=0;exitX=0.5;exitY=0;exitDx=0;exitDy=0;entryX=0.5;entryY=1;entryDx=0;entryDy=0;" parent="1" source="7s_l10Fg5CiA5fgPQIKB-41" target="7s_l10Fg5CiA5fgPQIKB-38" edge="1">
          <mxGeometry relative="1" as="geometry">
            <mxPoint x="200" y="510" as="sourcePoint" />
            <mxPoint x="290" y="490" as="targetPoint" />
          </mxGeometry>
        </mxCell>
        <mxCell id="7s_l10Fg5CiA5fgPQIKB-127" value="" style="endArrow=none;html=1;rounded=0;exitX=0.75;exitY=1;exitDx=0;exitDy=0;" parent="1" source="7s_l10Fg5CiA5fgPQIKB-38" target="7s_l10Fg5CiA5fgPQIKB-39" edge="1">
          <mxGeometry relative="1" as="geometry">
            <mxPoint x="210" y="520" as="sourcePoint" />
            <mxPoint x="300" y="500" as="targetPoint" />
          </mxGeometry>
        </mxCell>
        <mxCell id="7s_l10Fg5CiA5fgPQIKB-128" value="" style="endArrow=none;html=1;rounded=0;exitX=1;exitY=1;exitDx=0;exitDy=0;entryX=0;entryY=0;entryDx=0;entryDy=0;" parent="1" source="7s_l10Fg5CiA5fgPQIKB-38" target="7s_l10Fg5CiA5fgPQIKB-40" edge="1">
          <mxGeometry relative="1" as="geometry">
            <mxPoint x="230" y="550" as="sourcePoint" />
            <mxPoint x="320" y="530" as="targetPoint" />
          </mxGeometry>
        </mxCell>
        <mxCell id="7s_l10Fg5CiA5fgPQIKB-130" value="have" style="shape=rhombus;perimeter=rhombusPerimeter;whiteSpace=wrap;html=1;align=center;" parent="1" vertex="1">
          <mxGeometry x="250" y="410" width="120" height="60" as="geometry" />
        </mxCell>
        <mxCell id="7s_l10Fg5CiA5fgPQIKB-131" value="" style="endArrow=none;html=1;rounded=0;exitX=0.5;exitY=1;exitDx=0;exitDy=0;entryX=0.25;entryY=0;entryDx=0;entryDy=0;" parent="1" source="7s_l10Fg5CiA5fgPQIKB-130" target="7s_l10Fg5CiA5fgPQIKB-49" edge="1">
          <mxGeometry relative="1" as="geometry">
            <mxPoint x="403" y="380" as="sourcePoint" />
            <mxPoint x="503" y="420" as="targetPoint" />
            <Array as="points" />
          </mxGeometry>
        </mxCell>
        <mxCell id="7s_l10Fg5CiA5fgPQIKB-132" value="" style="edgeStyle=orthogonalEdgeStyle;rounded=0;orthogonalLoop=1;jettySize=auto;html=1;entryX=0.5;entryY=1;entryDx=0;entryDy=0;" parent="1" source="7s_l10Fg5CiA5fgPQIKB-130" target="7s_l10Fg5CiA5fgPQIKB-1" edge="1">
          <mxGeometry relative="1" as="geometry">
            <mxPoint x="403" y="320" as="sourcePoint" />
            <mxPoint x="287" y="250" as="targetPoint" />
            <Array as="points">
              <mxPoint x="310" y="370" />
              <mxPoint x="252" y="370" />
            </Array>
          </mxGeometry>
        </mxCell>
        <mxCell id="7s_l10Fg5CiA5fgPQIKB-133" value="manage " style="shape=rhombus;perimeter=rhombusPerimeter;whiteSpace=wrap;html=1;align=center;" parent="1" vertex="1">
          <mxGeometry x="348.75" y="480" width="101.25" height="70" as="geometry" />
        </mxCell>
        <mxCell id="7s_l10Fg5CiA5fgPQIKB-134" value="" style="endArrow=none;html=1;rounded=0;exitX=0.5;exitY=0;exitDx=0;exitDy=0;entryX=0;entryY=1;entryDx=0;entryDy=0;" parent="1" source="7s_l10Fg5CiA5fgPQIKB-49" target="7s_l10Fg5CiA5fgPQIKB-133" edge="1">
          <mxGeometry relative="1" as="geometry">
            <mxPoint x="403" y="380" as="sourcePoint" />
            <mxPoint x="370" y="530" as="targetPoint" />
            <Array as="points" />
          </mxGeometry>
        </mxCell>
        <mxCell id="7s_l10Fg5CiA5fgPQIKB-135" value="" style="edgeStyle=orthogonalEdgeStyle;rounded=0;orthogonalLoop=1;jettySize=auto;html=1;entryX=0;entryY=1;entryDx=0;entryDy=0;exitX=1;exitY=0;exitDx=0;exitDy=0;" parent="1" source="7s_l10Fg5CiA5fgPQIKB-133" target="7s_l10Fg5CiA5fgPQIKB-38" edge="1">
          <mxGeometry relative="1" as="geometry">
            <mxPoint x="650" y="390" as="sourcePoint" />
            <mxPoint x="553" y="440" as="targetPoint" />
            <Array as="points">
              <mxPoint x="442" y="495" />
            </Array>
          </mxGeometry>
        </mxCell>
      </root>
    </mxGraphModel>
  </diagram>
</mxfile>
